<svg width="16" height="19" viewBox="0 0 16 19" fill="none" xmlns="http://www.w3.org/2000/svg">
<path d="M9.61579 14.8126L9.44333 14.0827C9.22833 14.1335 9.04666 14.2765 8.94679 14.4736L9.61579 14.8126ZM6.38524 14.8128L7.05423 14.4738C6.95435 14.2767 6.77263 14.1337 6.55759 14.0829L6.38524 14.8128ZM8.00045 18L7.33146 18.339C7.45921 18.5911 7.71783 18.75 8.00045 18.75C8.28307 18.75 8.54169 18.5911 8.66945 18.339L8.00045 18ZM14.25 8C14.25 10.9543 12.1996 13.4314 9.44333 14.0827L9.78825 15.5425C13.206 14.7349 15.75 11.6655 15.75 8H14.25ZM8 1.75C11.4518 1.75 14.25 4.54822 14.25 8H15.75C15.75 3.71979 12.2802 0.25 8 0.25V1.75ZM1.75 8C1.75 4.54822 4.54822 1.75 8 1.75V0.25C3.71979 0.25 0.25 3.71979 0.25 8H1.75ZM6.55759 14.0829C3.8009 13.432 1.75 10.9546 1.75 8H0.25C0.25 11.6659 2.79452 14.7356 6.21288 15.5428L6.55759 14.0829ZM8.66945 17.661L7.05423 14.4738L5.71624 15.1519L7.33146 18.339L8.66945 17.661ZM8.94679 14.4736L7.33146 17.661L8.66945 18.339L10.2848 15.1516L8.94679 14.4736Z" fill="#777D9F"/>
<circle cx="7.94434" cy="7.87158" r="1.5" stroke="#777D9F" stroke-width="1.5"/>
</svg>
