<svg width="16" height="16" viewBox="0 0 16 16" fill="none" xmlns="http://www.w3.org/2000/svg">
<circle cx="8" cy="8" r="8" fill="#F43255"/>
<path d="M11.8878 4.71027L11.3352 4.16421C11.1857 4.01468 10.9386 4.01468 10.7826 4.16421L8.026 6.92075L5.21744 4.1122C5.06784 3.9626 4.82079 3.9626 4.66482 4.1122L4.1122 4.66482C3.9626 4.81435 3.9626 5.06141 4.1122 5.21744L6.91432 8.01956L4.16421 10.7827C4.01468 10.9322 4.01468 11.1793 4.16421 11.3353L4.71683 11.8879C4.86637 12.0375 5.11342 12.0375 5.26945 11.8879L8.026 9.13131L10.7826 11.8879C10.9321 12.0375 11.1792 12.0375 11.3352 11.8879L11.8878 11.3353C12.0374 11.1858 12.0374 10.9387 11.8878 10.7827L9.12474 8.02606L11.8813 5.26952C12.0374 5.11336 12.0374 4.8663 11.8878 4.71027Z" fill="white"/>
</svg>
