<svg xmlns="http://www.w3.org/2000/svg" viewBox="0 0 100 100"><defs><style>.cls-1{fill:#dfecff;}.cls-2{fill:#97c0ff;}</style></defs><g id="Layer_2" data-name="Layer 2"><g id="Layer_1-2" data-name="Layer 1"><path class="cls-1" d="M100,50A49.83,49.83,0,0,1,86.57,84.1c-.49.52-1,1-1.49,1.52A49.78,49.78,0,0,1,50,100h-.8A49.83,49.83,0,0,1,13.31,84h0A50,50,0,1,1,100,50Z"/><path class="cls-2" d="M85.08,85.62A49.78,49.78,0,0,1,50,100h-.8A49.83,49.83,0,0,1,13.31,84a57.87,57.87,0,0,1,35.6-11.92C64.41,72.05,76.54,78.61,85.08,85.62Z"/><path class="cls-2" d="M68.31,36.8c0,15.09-8.38,27.33-18.72,27.33S30.87,51.89,30.87,36.8s8.38-21.58,18.72-21.58S68.31,21.71,68.31,36.8Z"/></g></g></svg>