<svg width="18" height="18" viewBox="0 0 18 18" fill="none" xmlns="http://www.w3.org/2000/svg">
<path fill-rule="evenodd" clip-rule="evenodd" d="M11.8644 8.60723C12.2235 8.72589 12.5765 8.86753 12.9224 9.03196C13.2731 9.19867 13.4223 9.61812 13.2555 9.96884C13.0888 10.3196 12.6694 10.4687 12.3187 10.302C11.3345 9.83419 10.2823 9.58451 9.18821 9.55884C9.12577 9.56127 9.06302 9.5625 8.99999 9.5625C8.93755 9.5625 8.87543 9.5613 8.81359 9.55891C5.24351 9.64526 2.15201 12.2055 1.42234 15.7104C1.37674 15.9294 1.43102 16.1539 1.57126 16.3264C1.65247 16.4262 1.83356 16.5937 2.13372 16.5937H10.793C11.1813 16.5937 11.4961 16.9085 11.4961 17.2969C11.4961 17.6852 11.1813 18 10.793 18H2.13372C1.48938 18 0.886697 17.7134 0.480256 17.2136C0.0718107 16.7113 -0.0866385 16.059 0.0456193 15.4239C0.4676 13.3968 1.58546 11.5522 3.19323 10.2298C4.07003 9.50857 5.0718 8.96164 6.13943 8.61015C4.97417 7.73733 4.21874 6.34584 4.21874 4.78125C4.21874 2.14488 6.36358 0 8.99999 0C11.6364 0 13.7812 2.14488 13.7812 4.78125C13.7812 6.34412 13.0275 7.73423 11.8644 8.60723ZM8.99999 8.15038C9.05726 8.15038 9.11442 8.15091 9.17148 8.15193C10.9531 8.06235 12.375 6.58473 12.375 4.78125C12.375 2.92025 10.861 1.40625 8.99999 1.40625C7.13899 1.40625 5.62499 2.92025 5.62499 4.78125C5.62499 6.58519 7.04758 8.06308 8.82983 8.15199C8.8865 8.15094 8.94324 8.15038 8.99999 8.15038ZM15.3632 13.957H17.2968C17.6852 13.957 18 14.2718 18 14.6602C18 15.0485 17.6852 15.3633 17.2968 15.3633H15.3632V17.2969C15.3632 17.6852 15.0484 18 14.6601 18C14.2718 18 13.957 17.6852 13.957 17.2969V15.3633H12.0234C11.6351 15.3633 11.3203 15.0485 11.3203 14.6602C11.3203 14.2718 11.6351 13.957 12.0234 13.957H13.957V12.0234C13.957 11.6351 14.2718 11.3203 14.6601 11.3203C15.0484 11.3203 15.3632 11.6351 15.3632 12.0234V13.957Z" fill="#5352FF"/>
</svg>
