<svg width="24" height="24" viewBox="0 0 24 24" fill="none" xmlns="http://www.w3.org/2000/svg">
<path fill-rule="evenodd" clip-rule="evenodd" d="M19.6678 6.54422C20.2445 5.94949 20.2299 4.99986 19.6351 4.42315C19.0404 3.84644 18.0908 3.86105 17.5141 4.45578L12.0455 10.0953L6.57685 4.45578C6.00015 3.86105 5.05051 3.84644 4.45578 4.42315C3.86105 4.99986 3.84644 5.94949 4.42315 6.54422L9.95603 12.25L4.42315 17.9558C3.84645 18.5505 3.86105 19.5001 4.45578 20.0768C5.05051 20.6536 6.00015 20.6389 6.57685 20.0442L12.0455 14.4047L17.5141 20.0442C18.0908 20.6389 19.0404 20.6536 19.6351 20.0769C20.2299 19.5001 20.2445 18.5505 19.6678 17.9558L14.1349 12.25L19.6678 6.54422Z" fill="#A0A4A8"/>
</svg>
