<svg width="20" height="20" viewBox="0 0 20 20" fill="none" xmlns="http://www.w3.org/2000/svg">
<path d="M18.8861 9.63408C18.7256 9.40385 14.8938 4 10.0008 4C5.10776 4 1.27495 9.40385 1.1144 9.63302C1.04007 9.73938 1 9.86772 1 9.99947C1 10.1312 1.04007 10.2596 1.1144 10.3659C1.27495 10.5961 5.10675 16 9.99975 16C14.8927 16 18.7245 10.5961 18.8851 10.367C18.9596 10.2607 18.9998 10.1325 19 10.0007C19.0002 9.86895 18.9603 9.74055 18.8861 9.63408ZM10.0008 14.7591C6.39613 14.7591 3.27415 11.1685 2.35027 10.0005C3.27314 8.82725 6.38907 5.24298 10.0008 5.24298C13.6124 5.24298 16.7274 8.83358 17.6512 10.0016C16.7284 11.1738 13.6124 14.7591 10.0008 14.7591Z" fill="#999999"/>
<path d="M9.99965 6.27588C9.29551 6.27588 8.60719 6.49427 8.02172 6.90343C7.43624 7.31259 6.97992 7.89414 6.71046 8.57455C6.441 9.25496 6.37049 10.0037 6.50786 10.726C6.64523 11.4483 6.98431 12.1118 7.48222 12.6326C7.98012 13.1533 8.61447 13.508 9.30508 13.6516C9.99569 13.7953 10.7115 13.7216 11.3621 13.4398C12.0126 13.1579 12.5686 12.6807 12.9598 12.0683C13.351 11.4559 13.5598 10.736 13.5598 9.99954C13.5588 9.01231 13.1833 8.06582 12.5159 7.36774C11.8485 6.66966 10.9435 6.277 9.99965 6.27588ZM9.99965 12.4823C9.53016 12.4823 9.0712 12.3367 8.68083 12.0639C8.29046 11.7911 7.98621 11.4033 7.80654 10.9497C7.62688 10.496 7.57986 9.99678 7.67146 9.51517C7.76305 9.03355 7.98913 8.59116 8.32112 8.24394C8.6531 7.89671 9.07607 7.66025 9.53654 7.56445C9.99701 7.46865 10.4743 7.51782 10.9081 7.70574C11.3418 7.89366 11.7126 8.21188 11.9734 8.62017C12.2342 9.02846 12.3735 9.50849 12.3735 9.99954C12.3724 10.6575 12.1219 11.2881 11.6769 11.7532C11.2319 12.2182 10.6287 12.4797 9.99965 12.4802V12.4823Z" fill="#999999"/>
</svg>
