<svg width="26" height="26" viewBox="0 0 26 26" fill="none" xmlns="http://www.w3.org/2000/svg">
<path d="M23.1694 11.0874L14.1958 11.087C13.7996 11.087 13.4784 11.4081 13.4784 11.8044V14.6711C13.4784 15.0672 13.7996 15.3885 14.1958 15.3885H19.2492C18.6958 16.8245 17.663 18.0272 16.3454 18.7913L18.5001 22.5214C21.9566 20.5224 24.0001 17.0149 24.0001 13.0885C24.0001 12.5294 23.9589 12.1298 23.8765 11.6797C23.8138 11.3378 23.517 11.0874 23.1694 11.0874Z" fill="#167EE6"/>
<path d="M12.9998 19.6956C10.5268 19.6956 8.36785 18.3444 7.20834 16.345L3.47839 18.4949C5.37654 21.7847 8.93237 24 12.9998 24C14.9951 24 16.8779 23.4628 18.4998 22.5265V22.5214L16.345 18.7913C15.3594 19.3629 14.2189 19.6956 12.9998 19.6956Z" fill="#12B347"/>
<path d="M18.5 22.5265V22.5214L16.3452 18.7913C15.3596 19.3629 14.2192 19.6956 13 19.6956V24C14.9953 24 16.8782 23.4628 18.5 22.5265Z" fill="#0F993E"/>
<path d="M6.30435 13C6.30435 11.781 6.63702 10.6406 7.20854 9.65501L3.4786 7.50511C2.5372 9.1219 2 10.9995 2 13C2 15.0005 2.5372 16.8781 3.4786 18.4949L7.20854 16.345C6.63702 15.3594 6.30435 14.219 6.30435 13Z" fill="#FFD500"/>
<path d="M12.9998 6.30435C14.6125 6.30435 16.0938 6.87738 17.2508 7.83056C17.5362 8.06569 17.9511 8.04871 18.2126 7.78725L20.2437 5.75611C20.5403 5.45946 20.5192 4.97387 20.2023 4.69895C18.2638 3.0172 15.7415 2 12.9998 2C8.93237 2 5.37654 4.21534 3.47839 7.50512L7.20834 9.65501C8.36785 7.65555 10.5268 6.30435 12.9998 6.30435Z" fill="#FF4B26"/>
<path d="M17.251 7.83056C17.5364 8.06568 17.9513 8.04871 18.2128 7.78725L20.2439 5.75611C20.5405 5.45946 20.5194 4.97387 20.2025 4.69895C18.264 3.01716 15.7417 2 13 2V6.30435C14.6126 6.30435 16.094 6.87738 17.251 7.83056Z" fill="#D93F21"/>
</svg>
