<svg width="24" height="24" viewBox="0 0 24 24" fill="none" xmlns="http://www.w3.org/2000/svg">
<path d="M15.1995 5.0651C14.8314 4.90848 14.4027 5.07214 14.2419 5.43063C14.0811 5.78913 14.2491 6.2067 14.6172 6.36332C16.9835 7.37018 18.5454 9.64969 18.5454 12.2083C18.5454 15.729 15.6146 18.5833 12 18.5833C8.3849 18.5833 5.45452 15.7292 5.45452 12.2083C5.45452 9.65025 7.01588 7.37074 9.38151 6.36322C9.74953 6.2065 9.91742 5.78886 9.75648 5.43043C9.59557 5.072 9.16678 4.90848 8.79877 5.06523C5.90824 6.29625 4 9.08221 4 12.2082C4 16.5116 7.58162 20 12 20C16.4179 20 20 16.5114 20 12.2082C20 9.08148 18.091 6.29538 15.1995 5.0651Z" fill="#404345"/>
<path d="M11.9997 10.7917C12.4014 10.7917 12.727 10.4746 12.727 10.0834V3.70836C12.727 3.31713 12.4014 3 11.9997 3C11.5981 3 11.2725 3.31713 11.2725 3.70833V10.0834C11.2725 10.4746 11.5981 10.7917 11.9997 10.7917Z" fill="#404345"/>
</svg>
