<svg width="16" height="16" viewBox="0 0 16 16" fill="none" xmlns="http://www.w3.org/2000/svg">
<path d="M9.18051 9.34909C9.00574 9.53666 8.79497 9.6871 8.56079 9.79144C8.32661 9.89578 8.07381 9.95189 7.81748 9.95641C7.56114 9.96094 7.30652 9.91378 7.06881 9.81776C6.83109 9.72175 6.61515 9.57883 6.43387 9.39755C6.25258 9.21627 6.10967 9.00032 6.01365 8.76261C5.91764 8.52489 5.87048 8.27027 5.87501 8.01394C5.87953 7.75761 5.93564 7.50481 6.03998 7.27063C6.14432 7.03645 6.29476 6.82568 6.48233 6.65091M11.6114 11.78C10.5236 12.6092 9.19903 13.0685 7.83142 13.0909C3.37688 13.0909 0.831421 8 0.831421 8C1.62299 6.52484 2.72087 5.23602 4.05142 4.22L11.6114 11.78ZM6.49506 3.06182C6.93309 2.95928 7.38155 2.90803 7.83142 2.90909C12.286 2.90909 14.8314 8 14.8314 8C14.4451 8.72266 13.9845 9.40301 13.4569 10.03L6.49506 3.06182Z" stroke="#E4E2D2" stroke-linecap="round" stroke-linejoin="round"/>
<path d="M0.831421 1L14.8314 15" stroke="#E4E2D2" stroke-linecap="round" stroke-linejoin="round"/>
</svg>
