<svg width="24" height="24" viewBox="0 0 24 24" fill="none" xmlns="http://www.w3.org/2000/svg">
<path fill-rule="evenodd" clip-rule="evenodd" d="M15.1628 3C15.6318 3 16.012 3.38018 16.012 3.84916V4.86186C18.2285 4.9411 20.0011 6.76296 20.0011 8.99884V16.8624C20.0011 19.1487 18.1477 21.0021 15.8614 21.0021H8.13967C5.85339 21.0021 4 19.1487 4 16.8624V8.99884C4 6.7577 5.78093 4.93252 8.00477 4.86133V3.84916C8.00477 3.38018 8.38495 3 8.85393 3C9.32291 3 9.70309 3.38018 9.70309 3.84916V4.85917H14.3137V3.84916C14.3137 3.38018 14.6939 3 15.1628 3ZM8.00477 6.56116V6.9657C8.00477 7.43468 8.38495 7.81486 8.85393 7.81486C9.32291 7.81486 9.70309 7.43468 9.70309 6.9657V6.55749H14.3137V6.9657C14.3137 7.43468 14.6938 7.81486 15.1628 7.81486C15.6318 7.81486 16.012 7.43468 16.012 6.9657V6.56206C17.2902 6.63983 18.3028 7.70108 18.3028 8.99884V9.02554L5.69832 9.02554V8.99884C5.69832 7.69579 6.7192 6.63117 8.00477 6.56116ZM5.69832 10.7239V16.8624C5.69832 18.2107 6.79135 19.3038 8.13967 19.3038H15.8614C17.2098 19.3038 18.3028 18.2107 18.3028 16.8624V10.7239L5.69832 10.7239Z" fill="#B0B0B0"/>
</svg>
