<svg width="24" height="24" viewBox="0 0 24 24" fill="none" xmlns="http://www.w3.org/2000/svg">
<path d="M13.9104 6.44035C14.6586 6.60425 15.3462 7.01511 15.8852 7.62033C16.4242 8.22556 16.7901 8.99761 16.9361 9.83769M13.9104 3C15.4648 3.19389 16.9143 3.97549 18.0209 5.21645C19.1275 6.45741 19.8254 8.08398 20 9.82909M19.234 16.6926V19.2728C19.2349 19.5124 19.1912 19.7495 19.1057 19.969C19.0203 20.1884 18.8949 20.3854 18.7377 20.5474C18.5805 20.7093 18.3949 20.8326 18.1928 20.9093C17.9908 20.9861 17.7766 21.0146 17.5642 20.993C15.2071 20.7054 12.943 19.8011 10.9537 18.3526C9.10295 17.032 7.53384 15.2701 6.35779 13.192C5.06326 10.9482 4.25765 8.3936 4.00622 5.73508C3.98708 5.49723 4.01225 5.25752 4.08014 5.0312C4.14802 4.80488 4.25713 4.59691 4.40052 4.42054C4.54391 4.24416 4.71843 4.10324 4.91298 4.00675C5.10753 3.91026 5.31785 3.86031 5.53053 3.86009H7.82849C8.20022 3.85598 8.56061 4.00379 8.84247 4.27597C9.12433 4.54815 9.30843 4.92612 9.36046 5.33944C9.45745 6.16518 9.63732 6.97595 9.89665 7.75628C9.99971 8.06413 10.022 8.39869 9.96092 8.72034C9.89983 9.04198 9.7579 9.33722 9.55195 9.57106L8.57915 10.6634C9.66958 12.8166 11.2574 14.5995 13.1751 15.8239L14.1479 14.7316C14.3561 14.5003 14.6191 14.341 14.9055 14.2724C15.192 14.2038 15.4899 14.2288 15.7641 14.3445C16.4591 14.6357 17.1811 14.8377 17.9165 14.9466C18.2886 15.0055 18.6284 15.216 18.8713 15.5379C19.1143 15.8598 19.2433 16.2708 19.234 16.6926Z" stroke="#9FA1A2" stroke-width="2" stroke-linecap="round" stroke-linejoin="round"/>
</svg>
