<svg width="24" height="24" viewBox="0 0 24 24" fill="none" xmlns="http://www.w3.org/2000/svg">
<path d="M16.5455 21V19C16.5455 17.9391 16.1623 16.9217 15.4804 16.1716C14.7984 15.4214 13.8735 15 12.9091 15H5.63636C4.67194 15 3.74702 15.4214 3.06507 16.1716C2.38312 16.9217 2 17.9391 2 19V21" stroke="#9FA1A2" stroke-width="2" stroke-linecap="round" stroke-linejoin="round"/>
<path d="M9.2729 11C11.2812 11 12.9093 9.20914 12.9093 7C12.9093 4.79086 11.2812 3 9.2729 3C7.26459 3 5.63654 4.79086 5.63654 7C5.63654 9.20914 7.26459 11 9.2729 11Z" stroke="#9FA1A2" stroke-width="2" stroke-linecap="round" stroke-linejoin="round"/>
<path d="M21.9999 21V19C21.9993 18.1137 21.7311 17.2528 21.2375 16.5523C20.7438 15.8519 20.0527 15.3516 19.2726 15.13" stroke="#9FA1A2" stroke-width="2" stroke-linecap="round" stroke-linejoin="round"/>
<path d="M15.6365 3.13C16.4187 3.35031 17.112 3.85071 17.6071 4.55232C18.1022 5.25392 18.3709 6.11683 18.3709 7.005C18.3709 7.89318 18.1022 8.75608 17.6071 9.45769C17.112 10.1593 16.4187 10.6597 15.6365 10.88" stroke="#9FA1A2" stroke-width="2" stroke-linecap="round" stroke-linejoin="round"/>
</svg>
