<svg width="100" height="100" viewBox="0 0 100 100" fill="none" xmlns="http://www.w3.org/2000/svg">
<path d="M49.9997 99.9994C77.6138 99.9994 99.9994 77.6138 99.9994 49.9997C99.9994 22.3856 77.6138 0 49.9997 0C22.3856 0 0 22.3856 0 49.9997C0 77.6138 22.3856 99.9994 49.9997 99.9994Z" fill="#C6F8EF"/>
<path d="M43.0299 48.7168C47.6754 48.7168 52.3209 48.7168 56.9661 48.7168L57.0422 49.6693L50.2317 59.9942L42.9156 49.5674L43.0297 48.7174L43.0299 48.7168Z" fill="#B3B3B3"/>
<path d="M43.1197 46.127L42.999 51.951L33.1182 57.3541V77.1598H49.7518H66.3833V57.3539L57.2004 51.6463L56.6961 45.8232L43.1199 46.1268H43.1197V46.127Z" fill="#F0BA7D"/>
<path d="M38.5539 29.1432C38.5539 29.1432 37.9873 27.8983 36.4662 28.5153C34.9447 29.1315 36.5346 35.2831 37.116 36.1413C37.6969 36.9991 38.6322 36.4543 38.9729 36.4204C39.4572 40.0875 39.5004 42.6151 40.9684 44.1614C42.3588 45.6255 45.542 48.6092 47.219 49.6499C48.3547 49.8897 49.202 50.0305 49.9991 50.0727C50.7957 50.0305 51.6438 49.8893 52.7791 49.6499C54.4559 48.6098 57.6397 45.6255 59.0297 44.1614C60.4973 42.6151 60.5409 40.0881 61.0252 36.4204C61.3659 36.4545 62.3012 36.9991 62.8821 36.1413C63.4633 35.2831 65.0534 29.1313 63.5319 28.5153C62.0104 27.8981 61.4442 29.1432 61.4442 29.1432C61.4442 29.1432 62.9479 24.3125 60.275 19.5576C58.4434 16.2986 54.2659 14.6084 49.9992 14.4844C45.7326 14.6084 41.5551 16.2986 39.7234 19.5576C37.0506 24.3127 38.5543 29.1432 38.5543 29.1432H38.5539Z" fill="#FED298"/>
<path d="M38.1535 53.6643L40.5198 52.7322L42.4266 51.0188L49.1594 56.1252H50.8362L57.5712 51.0127L61.8434 53.6649L69.2675 66.284L63.388 98.1831C59.126 99.3651 54.6362 99.9995 49.9977 99.9995C46.2147 99.9995 42.5309 99.5767 38.9883 98.7808L28.4502 67.2922L38.153 53.6645L38.1535 53.6643Z" fill="#C6F8EF"/>
<path d="M59.6843 52.0678L56.9661 48.7158L50.837 56.1244L56.098 61.9701L59.6843 52.0678Z" fill="#008B8B"/>
<path d="M40.3085 52.0088L43.0302 48.7158L49.1597 56.1244L43.6897 61.91L40.3085 52.0088Z" fill="#008B8B"/>
<path d="M40.3089 52.0098L22.2924 57.8686C21.5598 58.1063 21.0997 58.7293 20.9504 59.4856L15.6526 86.3329C19.2204 89.7069 23.2854 92.5591 27.7255 94.7724L30.3593 86.1768C30.3899 86.0782 30.4837 86.0167 30.5862 86.029C30.6884 86.0411 30.7661 86.1229 30.7718 86.2262L31.152 96.3216C36.9686 98.6917 43.3308 99.9995 49.9995 99.9995V96.6476L40.3093 52.01L40.3089 52.0098Z" fill="white"/>
<path d="M40.3089 52.0098L38.2454 52.6438L32.7786 61.9717L39.6799 62.1879L35.443 64.6002L49.9997 96.6479L40.3094 52.0102L40.3089 52.0098Z" fill="#EEF3F7"/>
<path d="M59.6843 52.0693L77.7062 57.8692C78.44 58.1053 78.8986 58.7299 79.0478 59.4861L84.3459 86.3339C80.7777 89.7079 76.7125 92.5602 72.2722 94.7737L69.6381 86.1778C69.6078 86.0792 69.5131 86.0176 69.4111 86.0299C69.3089 86.0421 69.232 86.1243 69.2259 86.2272L68.8466 96.3225C63.03 98.6927 56.6679 100 49.9995 100H49.9991V96.6485L59.6841 52.0699L59.6843 52.0693Z" fill="#EEF3F7"/>
<path d="M59.6842 52.0693L60.8297 52.4178L67.2151 62.0311L60.3137 62.2477L64.551 64.6602L49.999 96.6485L59.684 52.0699V52.0695H59.6842V52.0693Z" fill="white"/>
<path d="M52.0411 96.4385C51.4335 96.4385 50.9409 96.9299 50.9409 97.5354C50.9409 98.1418 51.4339 98.633 52.0411 98.633C52.6483 98.633 53.1413 98.1416 53.1413 97.5354C53.1413 96.9295 52.6483 96.4385 52.0411 96.4385Z" fill="#D9DADA"/>
<path d="M60.1314 30.5814L61.1915 30.5443L61.5327 29.3346L62.5314 28.3381C63.191 23.3716 63.3853 15.6421 58.4558 15.8652C58.4558 15.8652 58.0113 10.2292 49.1196 11.3339C40.2274 12.439 36.2098 18.1793 36.6886 22.9683C37.1669 27.7574 36.9741 28.3375 36.9741 28.3375L37.9727 29.3344L38.1233 30.7105L38.9954 30.6555C38.9954 30.6555 39.2688 28.8135 39.5425 28.0033C39.8163 27.1933 39.7306 25.5535 39.7306 25.5535C39.7306 25.5535 50.2333 26.2226 53.0716 22.6123C54.8245 20.3828 58.8503 16.5197 59.0531 21.8697C59.1132 23.4562 58.5234 25.8342 59.6521 27.5648C60.7812 29.2957 60.131 30.581 60.131 30.581H60.1314V30.5814Z" fill="#013636"/>
<path d="M49.9991 96.6479L52.8382 83.5807L50.9089 57.8229L51.96 57.3742L50.8364 56.126H49.1596L48.0073 57.3451L49.0889 57.823L47.2079 83.7893L49.9993 96.6481L49.9991 96.6479Z" fill="#008B8B"/>
<path d="M51.9432 96.4385C51.3899 96.4385 50.9407 96.8857 50.9407 97.4375C50.9407 97.9899 51.3897 98.4375 51.9432 98.4375C52.4961 98.4375 52.9458 97.99 52.9458 97.4375C52.9458 96.8859 52.4961 96.4385 51.9432 96.4385Z" fill="white"/>
<path d="M67.6543 79.8964C65.7032 79.5594 64.3946 77.7044 64.7311 75.7538C65.068 73.803 66.9231 72.4934 68.8737 72.8301C70.8249 73.167 72.1335 75.0225 71.7969 76.9737C71.46 78.9243 69.6049 80.2335 67.654 79.8965L67.6543 79.8964Z" fill="#FEFEFE"/>
<path d="M67.6898 79.6899C65.8523 79.3726 64.6199 77.6265 64.9373 75.7884C65.2546 73.9507 67.0013 72.7181 68.8392 73.035C70.6767 73.3524 71.9091 75.0995 71.5918 76.937C71.2744 78.7751 69.5277 80.0069 67.6898 79.6896V79.6899Z" fill="#008B8B"/>
<path d="M67.9464 78.204C66.93 78.0288 66.248 77.0614 66.4232 76.0448C66.5984 75.028 67.5658 74.3464 68.582 74.5216C69.5988 74.6972 70.2808 75.6632 70.1052 76.6804C69.93 77.6968 68.963 78.3788 67.9464 78.2036V78.204Z" fill="#EBECEC"/>
<path d="M68.1661 74.7227L68.987 74.8645L69.4284 72.3078L68.6075 72.166L68.1661 74.7227Z" fill="#FEFEFE"/>
<path d="M40.6709 80.6045L42.2092 80.2992C42.8629 80.1691 43.4041 79.7846 43.7496 79.2682C44.0941 78.7518 44.2439 78.1047 44.1139 77.4508L42.3047 68.3361C41.6217 64.8966 38.931 63.1427 35.8564 62.7539C34.6783 62.6048 33.4431 62.6591 32.2465 62.8961C31.0488 63.133 29.8879 63.5541 28.8564 64.1414C26.1701 65.6715 24.3597 68.3168 25.0435 71.7617L26.8527 80.8768C26.9828 81.5305 27.3681 82.0713 27.8841 82.4168L27.8855 82.4164C28.4019 82.7619 29.0482 82.9107 29.7019 82.7811L31.2394 82.4758L31.1136 81.8418L29.5757 82.1471C29.0964 82.2422 28.6216 82.1324 28.2433 81.8801L28.2437 81.8797C27.8652 81.6262 27.5824 81.2295 27.4871 80.7506L25.6779 71.6355C25.0574 68.5095 26.7162 66.1002 29.1742 64.7011C30.1457 64.1474 31.2412 63.7504 32.372 63.5259C33.5029 63.3019 34.6674 63.2513 35.7771 63.3916C38.5914 63.7472 41.0523 65.341 41.6713 68.4609L43.4809 77.576C43.5756 78.0549 43.4658 78.5293 43.2131 78.9084C42.9596 79.2865 42.5629 79.5693 42.0834 79.6641L40.5451 79.9693L40.6709 80.6033V80.6043V80.6045Z" fill="#008B8B"/>
<path d="M42.7929 69.6876L42.5165 68.2954C41.8128 64.7493 39.0444 62.9418 35.8835 62.5417C34.6825 62.3901 33.4247 62.4444 32.2056 62.6864C30.9864 62.9276 29.803 63.3573 28.752 63.9553C25.9891 65.5288 24.1282 68.2526 24.8333 71.805L25.11 73.1971L26.1659 72.987L25.8895 71.5948C25.2905 68.5756 26.8989 66.2446 29.2804 64.8885C30.2323 64.3467 31.3058 63.9579 32.4145 63.7379C33.523 63.5178 34.6646 63.4684 35.7519 63.6057C38.4786 63.9502 40.8626 65.4905 41.4612 68.5046L41.7376 69.8967L42.7939 69.687L42.7929 69.6876Z" fill="#4D4D4D"/>
<path d="M30.0193 82.8589L30.8424 82.6954C31.049 82.9273 31.3687 83.0462 31.6945 82.9818C32.1842 82.8845 32.5023 82.4091 32.4051 81.9191C32.3082 81.4298 31.8324 81.1116 31.3428 81.2089C31.0162 81.2734 30.7666 81.506 30.6646 81.7989L29.8422 81.962L30.0199 82.8585L30.0193 82.8589Z" fill="#073273"/>
<path d="M41.3249 80.6148L40.5028 80.7783C40.4006 81.0711 40.151 81.3033 39.8251 81.3683C39.3354 81.4652 38.86 81.1474 38.7627 80.6574C38.6659 80.1681 38.9836 79.6923 39.4729 79.5955C39.7989 79.531 40.119 79.6505 40.3247 79.8818L41.1471 79.7183L41.3249 80.6148Z" fill="#073273"/>
<path d="M32.7057 62.6037L32.3918 61.0225L31.7678 61.1465L31.1445 61.2701L31.4619 62.867C31.6996 62.7977 31.9402 62.7387 32.1832 62.6904C32.3564 62.6559 32.5303 62.6275 32.7057 62.6037Z" fill="#666666"/>
<path d="M31.3596 81.9804C31.5076 81.9511 31.6039 81.8066 31.5744 81.6591C31.5451 81.5109 31.4018 81.4144 31.2531 81.4437C31.1049 81.473 31.0088 81.6172 31.0383 81.765C31.0678 81.9129 31.2113 82.0097 31.3596 81.9799V81.9804Z" fill="#0C55C2"/>
<path d="M39.495 80.3619C39.6428 80.3326 39.7387 80.1885 39.7094 80.041C39.6801 79.8924 39.5368 79.7963 39.3881 79.8256C39.2399 79.8549 39.1438 79.999 39.1733 80.1472C39.2022 80.2953 39.3463 80.3914 39.495 80.3619Z" fill="#0C55C2"/>
<path d="M67.8466 78.187C66.8851 78.0212 66.2403 77.107 66.4059 76.1448C66.5718 75.1837 67.4854 74.5386 68.4472 74.7048C69.4087 74.8706 70.0538 75.7849 69.8878 76.746C69.7216 77.7075 68.8073 78.3527 67.8462 78.187H67.8466Z" fill="#FEFEFE"/>
<path d="M40.3176 52.4836C40.2901 52.484 30.5793 52.5645 32.2195 61.0602L31.3164 61.2328C29.4674 51.6551 40.2762 51.5668 40.3069 51.5664L40.3176 52.4836Z" fill="#4D4D4D"/>
<path d="M59.695 51.6104C61.2793 51.6531 64.3419 52.085 66.6993 54.9523C69.0061 57.7584 70.6233 62.9117 69.4141 72.3602L68.5038 72.2452C69.6743 63.1002 68.1618 58.1764 65.9911 55.5354C63.8702 52.9551 61.1047 52.5662 59.6741 52.5277L59.6956 51.6104H59.695Z" fill="#4D4D4D"/>
</svg>
