<svg width="287" height="198" viewBox="0 0 287 198" fill="none" xmlns="http://www.w3.org/2000/svg">
<path d="M280.678 59.0488C277.544 59.0488 275.004 56.5144 275.004 53.3872C275.004 50.2601 277.544 47.7256 280.678 47.7256C283.811 47.7256 286.351 50.2601 286.351 53.3872C286.351 56.5144 283.811 59.0488 280.678 59.0488Z" fill="#E5E4EF"/>
<path d="M8.86232 42.8926C4.16179 42.8926 0.351257 39.09 0.351257 34.4002C0.351257 29.7095 4.16179 25.9078 8.86232 25.9078C13.5619 25.9078 17.3725 29.7095 17.3725 34.4002C17.3725 39.09 13.5619 42.8926 8.86232 42.8926Z" fill="#E5E4EF"/>
<path d="M33.3972 40.4121C31.308 40.4121 29.6149 38.7222 29.6149 36.6377C29.6149 34.5532 31.308 32.8633 33.3972 32.8633C35.486 32.8633 37.1797 34.5532 37.1797 36.6377C37.1797 38.7222 35.486 40.4121 33.3972 40.4121Z" fill="#A8CFEF"/>
<path d="M178.075 198C176.508 198 175.239 196.733 175.239 195.169C175.239 193.606 176.508 192.337 178.075 192.337C179.642 192.337 180.912 193.606 180.912 195.169C180.912 196.733 179.642 198 178.075 198Z" fill="#E5E4EF"/>
<path d="M30.3406 37.4785C22.9945 41.4083 25.9708 51.0589 27.8209 57.3132C30.4815 66.311 33.936 75.087 37.5908 83.723C41.7866 93.6399 46.3724 103.416 51.5703 112.853C55.737 120.418 60.2617 128.268 66.3369 134.497C70.0263 138.279 74.8589 141.199 79.9138 142.72C86.6949 144.759 93.7712 143.356 99.3863 139.095C105.16 134.716 108.667 128.157 110.381 121.218C111.271 117.614 111.659 114.296 111.177 110.645C110.133 102.735 107.591 94.9935 105.033 87.4647C101.786 77.9051 98.0919 68.4955 94.1456 59.2022C90.7633 51.2398 87.2169 43.3119 83.1449 35.6731C80.2554 30.2497 77.0807 24.4344 70.8088 22.3863C68.1005 21.5018 65.2492 21.8645 62.8197 23.3327C60.9213 24.4808 62.6557 27.4616 64.5633 26.308C68.4476 23.9608 72.5542 26.5425 75.2624 29.4761C75.4036 29.6288 75.5348 29.7942 75.6796 29.9451C76.0067 30.2878 75.4446 29.5997 75.6733 29.9333C75.9529 30.3424 76.2499 30.7387 76.5241 31.1524C77.2155 32.196 77.8586 33.2732 78.4808 34.3595C82.3059 41.0365 85.5262 48.0753 88.6343 55.106C92.4922 63.832 96.0696 72.6862 99.3326 81.6513C102.208 89.551 104.949 97.5725 106.797 105.782C107.142 107.314 107.45 108.856 107.685 110.408C107.712 110.589 107.739 110.77 107.764 110.95C107.722 110.646 107.767 110.973 107.782 111.094C107.821 111.429 107.861 111.765 107.892 112.101C107.948 112.689 107.988 113.279 108.001 113.87C108.04 115.601 107.719 117.285 107.356 118.975C106.629 122.365 105.522 125.682 103.833 128.72C100.747 134.27 95.6022 138.803 89.2265 140.003C85.9051 140.628 82.4936 140.06 79.3554 138.901C77.7147 138.295 76.1488 137.491 74.6475 136.596C73.9151 136.16 73.1973 135.699 72.4949 135.216C72.1716 134.994 71.8536 134.767 71.5366 134.537L71.3089 134.369C71.4355 134.464 71.4492 134.479 71.3153 134.374C68.8557 132.427 66.7085 129.901 64.8748 127.48C62.2959 124.075 59.9866 120.468 57.804 116.8C52.6015 108.058 48.0831 98.9061 43.911 89.6355C39.9565 80.8504 36.3072 71.9071 33.1976 62.7875C32.0394 59.3903 30.9459 55.9632 30.074 52.4815C29.8196 51.4652 29.5987 50.4398 29.3695 49.4171C29.3129 49.1653 29.2645 48.9117 29.2215 48.6562C29.1343 48.1399 29.1634 48.3644 29.1143 47.7972C29.0329 46.8681 29.0101 45.9082 29.135 44.9818C29.3962 43.0519 30.31 41.4029 32.0839 40.4538C34.0431 39.4057 32.3013 36.4294 30.3406 37.4785" fill="#E5E4EF"/>
<path d="M68.6294 138.81C71.1045 140.61 73.8392 142.245 76.8062 143.448C79.7704 144.65 82.9815 145.423 86.3448 145.424C86.7055 145.424 87.0663 145.415 87.4288 145.397C91.1473 145.209 94.6609 144.044 97.7609 142.253C100.863 140.459 103.57 138.039 105.731 135.241C110.01 129.686 112.132 123.007 113.049 116.468L106.207 115.518C105.411 121.252 103.559 126.773 100.26 131.034C98.6317 133.145 96.5693 134.978 94.2992 136.288C92.0273 137.6 89.5659 138.389 87.0826 138.512C86.8367 138.525 86.5907 138.53 86.3448 138.53C84.0519 138.531 81.7199 138 79.406 137.062C77.0958 136.127 74.8194 134.785 72.7014 133.242L68.6294 138.81" fill="#BDB6D1"/>
<path d="M93.4908 141.124C97.4926 156.262 105.834 170.246 117.359 180.884C128.003 190.71 142.964 198.107 157.793 196.256C165.648 195.275 172.466 191.556 178.239 186.242C184.006 180.932 188.887 174.521 192.748 167.718C200.404 154.228 204.206 138.342 202.164 122.882C201.247 115.935 199.039 108.905 194.389 103.514C189.98 98.4016 183.394 95.7208 176.664 96.5453C170.105 97.348 163.989 100.813 159.607 105.71C154.437 111.487 152.103 119.101 151.612 126.724C151.082 134.967 152.646 143.291 154.902 151.19C157.037 158.666 159.994 166.083 164.552 172.44C169.185 178.901 175.358 183.91 182.69 187.032C189.901 190.102 197.805 191.462 205.633 191.198C220.717 190.688 235.585 184.319 246.171 173.55C256.788 162.746 262.786 147.702 262.933 132.607C262.97 128.862 262.617 125.123 261.938 121.442C261.537 119.263 258.208 120.186 258.608 122.358C261.177 136.3 258.018 151.08 250.295 162.939C242.55 174.833 230.094 183.121 216.308 186.334C202.422 189.569 186.334 187.596 174.947 178.525C169.237 173.977 165.137 167.846 162.157 161.248C159.077 154.43 157.015 147 155.799 139.63C154.55 132.056 154.48 124.082 157.054 116.764C159.181 110.714 163.39 105.679 169.032 102.585C174.06 99.827 180.36 98.7497 185.736 101.198C191.641 103.887 195.199 109.707 197.092 115.683C201.384 129.239 199.2 144.627 193.886 157.568C191.124 164.298 187.316 170.682 182.737 176.337C178.096 182.066 172.632 187.541 165.798 190.577C152.947 196.286 138.034 191.586 126.973 184.133C115.012 176.072 105.714 163.664 100.248 150.419C98.8763 147.096 97.7395 143.683 96.8212 140.208C96.2546 138.065 92.9223 138.974 93.4908 141.124" fill="#BDB6D1"/>
<path d="M274.332 120.24C276.869 112.411 272.565 104.011 264.719 101.48C256.873 98.9486 248.457 103.243 245.919 111.073C243.383 118.901 247.686 127.301 255.532 129.833C263.377 132.365 271.795 128.07 274.332 120.24Z" fill="#E5E4EF"/>
<path d="M269.12 118.558C270.726 113.601 268.002 108.283 263.034 106.681C258.067 105.078 252.738 107.797 251.132 112.754C249.526 117.711 252.25 123.028 257.218 124.632C262.185 126.234 267.513 123.515 269.12 118.558Z" fill="#BDB6D1"/>
<path d="M41.951 40.3395L37.3999 42.0085C34.6214 43.0266 31.5416 41.6058 30.5207 38.8323C29.4998 36.0596 30.9245 32.987 33.7026 31.968L38.2543 30.299L41.951 40.3395" fill="#E5E4EF"/>
<path d="M52.642 24.3307L57.153 22.5544C59.9068 21.4708 63.0196 22.8199 64.1054 25.5671C65.1913 28.3151 63.8394 31.4214 61.0865 32.5059L56.5755 34.2812L52.642 24.3307" fill="#E5E4EF"/>
<path d="M198.283 71.668C184.468 63.3737 170.264 47.4907 164.462 32.4804C162.161 26.5297 161.19 18.59 166.36 14.8402C169.638 12.463 174.075 13.452 177.832 14.9647C183.893 17.4055 191.386 27.3415 192.83 31.9159C194.647 25.1143 194.825 22.7972 198.737 16.3474C200.685 13.1357 203.815 9.59585 207.422 8.53044C211.725 7.25867 216.505 9.56765 219.169 13.1711C221.833 16.7746 222.716 21.3972 222.879 25.8716C223.494 42.8136 211.46 60.482 198.585 71.668H198.283" fill="#E5E4EF"/>
<path d="M192.852 31.834C192.844 31.7613 192.837 31.6876 192.83 31.614C193.367 29.5223 193.861 27.5887 194.479 25.6579C193.975 27.3951 193.527 29.3032 192.852 31.834ZM222.901 27.1142C222.901 26.6996 222.894 26.286 222.879 25.8724C222.894 26.286 222.901 26.6996 222.901 27.1142ZM219.169 13.172C219.153 13.1493 219.136 13.1265 219.118 13.1038C219.136 13.1265 219.153 13.1493 219.169 13.172ZM219.071 13.0402C219.057 13.022 219.044 13.0047 219.03 12.9874C219.044 13.0047 219.057 13.022 219.071 13.0402ZM207.422 8.53127C208.234 8.29128 209.063 8.17854 209.891 8.17854C209.063 8.17854 208.234 8.29128 207.422 8.53127ZM209.908 8.17854C209.904 8.17854 209.899 8.17854 209.895 8.17854C209.899 8.17854 209.904 8.17854 209.908 8.17854Z" fill="#E1DFEE"/>
<path d="M198.585 71.668H198.283L198.084 71.5416C196.451 57.7167 194.245 45.6663 192.852 31.8332C193.527 29.3023 193.975 27.3942 194.479 25.657C195.416 22.7281 196.64 19.8064 198.738 16.3474C200.685 13.1357 203.815 9.59586 207.423 8.53044C208.234 8.29045 209.063 8.17772 209.891 8.17772C209.892 8.17772 209.894 8.17772 209.895 8.17772C209.9 8.17772 209.904 8.17772 209.909 8.17772C213.389 8.18317 216.862 10.1658 219.03 12.9866C219.044 13.0039 219.057 13.0212 219.071 13.0393C219.087 13.0603 219.103 13.0821 219.118 13.103C219.136 13.1257 219.153 13.1484 219.169 13.1712C221.833 16.7747 222.717 21.3972 222.879 25.8716C222.894 26.2852 222.902 26.6988 222.902 27.1133C222.906 43.0255 212.047 59.4221 200.053 70.3617C199.566 70.8062 199.076 71.2416 198.585 71.668" fill="#E5E4EF"/>
<path d="M222.88 80.4349C221.31 71.2788 222.919 59.092 227.313 50.9024C229.054 47.6552 232.169 44.239 235.761 45.0835C238.038 45.6171 239.277 47.9279 240.031 50.1378C241.244 53.7041 239.713 60.7193 238.251 63.0737C241.918 61.3038 243 60.5083 247.303 59.7856C249.444 59.4257 252.176 59.4575 254.003 60.6311C256.182 62.0301 256.971 64.9873 256.395 67.5081C255.819 70.0289 254.126 72.1561 252.226 73.9142C245.031 80.5667 232.749 81.973 222.994 80.5676L222.88 80.4349Z" fill="#E5E4EF"/>
<path d="M229.956 81.0605C229.954 81.0605 229.953 81.0605 229.951 81.0605C229.953 81.0605 229.954 81.0605 229.956 81.0605ZM229.971 81.0605C238.064 81.0578 246.626 79.0597 252.181 73.9545C246.625 79.0597 238.065 81.0587 229.971 81.0605ZM222.994 80.5669L222.88 80.4351L222.879 80.4315C222.88 80.4324 222.88 80.4333 222.88 80.4342L222.994 80.5669V80.5669ZM238.296 63.0513C238.326 63.0204 238.355 62.9904 238.384 62.9594C239.502 62.4067 240.534 61.894 241.611 61.4368C240.662 61.8704 239.658 62.3931 238.296 63.0513ZM254.003 60.6304C253.953 60.5977 253.902 60.5668 253.851 60.5359C253.902 60.5668 253.953 60.5977 254.003 60.6304ZM247.362 59.775C247.371 59.7732 247.38 59.7723 247.389 59.7705C247.38 59.7723 247.371 59.7732 247.362 59.775ZM247.434 59.7632C247.441 59.7623 247.448 59.7614 247.455 59.7595C247.448 59.7614 247.441 59.7623 247.434 59.7632ZM247.546 59.7459C248.216 59.645 248.935 59.5832 249.662 59.5832C248.935 59.5832 248.216 59.645 247.546 59.7459ZM249.682 59.5832C249.678 59.5832 249.674 59.5832 249.671 59.5832C249.674 59.5832 249.678 59.5832 249.682 59.5832Z" fill="#E1DFEE"/>
<path d="M229.956 81.0605C229.954 81.0605 229.954 81.0605 229.952 81.0605C227.562 81.0605 225.213 80.886 222.995 80.5669L222.881 80.4342C222.881 80.4333 222.881 80.4324 222.88 80.4315L222.861 80.3006C228.306 74.3781 232.758 68.8719 238.297 63.0513C239.659 62.3931 240.663 61.8704 241.612 61.4368C243.251 60.7413 244.994 60.1723 247.304 59.785C247.323 59.7814 247.343 59.7777 247.363 59.775C247.372 59.7732 247.38 59.7723 247.389 59.7705C247.405 59.7677 247.419 59.7659 247.435 59.7632C247.441 59.7623 247.448 59.7614 247.456 59.7595C247.486 59.755 247.516 59.7505 247.547 59.7459C248.216 59.645 248.936 59.5832 249.663 59.5832C249.666 59.5832 249.668 59.5832 249.671 59.5832C249.675 59.5832 249.678 59.5832 249.683 59.5832C251.166 59.5841 252.678 59.8414 253.852 60.5359C253.903 60.5668 253.954 60.5977 254.004 60.6304C255.723 61.734 256.577 63.8085 256.578 65.8729C256.578 66.4247 256.518 66.9756 256.396 67.5074C255.82 70.0282 254.127 72.1554 252.226 73.9136C252.212 73.9272 252.197 73.9408 252.182 73.9545C246.627 79.0597 238.065 81.0578 229.972 81.0605C229.967 81.0605 229.961 81.0605 229.956 81.0605" fill="#E5E4EF"/>
<path d="M169.041 77.4513C161.951 80.323 151.861 81.1821 144.498 79.1058C141.578 78.2831 138.28 76.3896 138.326 73.3624C138.355 71.4434 139.995 70.0435 141.64 69.0508C144.296 67.449 150.211 67.4399 152.362 68.1953C150.292 65.5691 149.461 64.8427 148.121 61.5229C147.453 59.8702 146.998 57.6758 147.62 56.0049C148.362 54.0132 150.602 52.8587 152.731 52.8759C154.861 52.8932 156.872 53.875 158.621 55.0877C165.242 59.6793 168.538 69.2717 169.128 77.3368L169.041 77.4513" fill="#E5E4EF"/>
<path d="M152.337 68.1631C152.307 68.1449 152.277 68.1267 152.247 68.1085C151.603 67.3077 151.007 66.5686 150.447 65.7832C150.965 66.4695 151.564 67.184 152.337 68.1631ZM147.628 55.9817C148.372 54.0218 150.569 52.88 152.673 52.8755C150.569 52.88 148.372 54.0218 147.628 55.9817ZM152.731 52.8755C152.724 52.8755 152.717 52.8755 152.709 52.8755C152.717 52.8755 152.724 52.8755 152.731 52.8755ZM152.708 52.8755C152.7 52.8755 152.693 52.8755 152.685 52.8755C152.693 52.8755 152.7 52.8755 152.708 52.8755Z" fill="#E1DFEE"/>
<path d="M168.937 77.4902C163.211 74.1722 157.997 71.575 152.336 68.1633C151.564 67.1843 150.965 66.4698 150.446 65.7834C149.6 64.5953 148.837 63.2999 148.121 61.5227C147.674 60.4191 147.323 59.0728 147.324 57.8037C147.325 57.1719 147.413 56.5602 147.619 56.0047C147.622 55.9974 147.625 55.9893 147.628 55.982C148.371 54.0221 150.568 52.8803 152.673 52.8757C152.676 52.8757 152.681 52.8757 152.684 52.8757C152.693 52.8757 152.7 52.8757 152.707 52.8757C152.707 52.8757 152.708 52.8757 152.709 52.8757C152.716 52.8757 152.724 52.8757 152.731 52.8757C154.861 52.893 156.871 53.8748 158.62 55.0875C165.242 59.6791 168.538 69.2715 169.127 77.3366L169.041 77.4512L168.937 77.4902" fill="#E5E4EF"/>
<path d="M84.7122 15.2233C85.9302 11.4216 87.1463 7.61907 88.3633 3.8174C88.5382 3.27288 88.7131 2.72653 88.888 2.1811C89.1713 1.29477 88.5546 0.301168 87.681 0.0611776C86.7491 -0.194267 85.8418 0.375711 85.5567 1.26568C84.3396 5.06735 83.1226 8.86901 81.9065 12.6707C81.7316 13.2161 81.5567 13.7616 81.3818 14.307C81.0985 15.1933 81.7152 16.1878 82.5888 16.4269C83.5198 16.6824 84.428 16.1133 84.7122 15.2233" fill="#E5E4EF"/>
<path d="M97.7742 27.4673C101.827 25.7265 105.879 23.9866 109.932 22.2457C110.789 21.8776 110.981 20.6212 110.551 19.8876C110.033 19.004 109.049 18.9004 108.189 19.2695C104.136 21.0103 100.083 22.7502 96.0306 24.4911C95.1743 24.8593 94.9821 26.1156 95.4112 26.8492C95.9295 27.7328 96.9143 27.8364 97.7742 27.4673Z" fill="#E5E4EF"/>
<path d="M46.0609 129.289C40.6754 131.441 35.3353 133.705 29.9496 135.857C29.0846 136.203 28.4764 137.008 28.7433 137.978C28.9692 138.798 29.997 139.529 30.8677 139.181C36.2536 137.029 41.5936 134.764 46.9792 132.612C47.8446 132.266 48.4522 131.462 48.1853 130.492C47.9594 129.672 46.9318 128.941 46.0609 129.289" fill="#E5E4EF"/>
<path d="M56.7882 143.501C54.3523 149.203 51.9164 154.904 49.4814 160.606C49.138 161.409 48.7955 162.211 48.4521 163.014C48.0877 163.869 48.1961 164.86 49.0724 165.371C49.7975 165.795 51.0674 165.615 51.4345 164.754C53.8704 159.051 56.3054 153.351 58.7413 147.648C59.0838 146.846 59.4273 146.044 59.7698 145.241C60.136 144.386 60.0258 143.395 59.1503 142.883C58.4243 142.459 57.1553 142.641 56.7882 143.501" fill="#E5E4EF"/>
<path d="M264.202 94.3731C269.69 96.1767 274.324 100.128 277.112 105.165C280.038 110.452 280.539 116.72 278.793 122.477C277.792 125.776 276.059 128.816 273.708 131.34C272.196 132.963 274.632 135.406 276.149 133.777C280.926 128.649 283.544 121.651 283.247 114.644C282.958 107.824 279.846 101.343 274.816 96.7321C272.018 94.1659 268.728 92.2359 265.12 91.0496C263.004 90.3542 262.098 93.6813 264.202 94.3731" fill="#E5E4EF"/>
<path d="M264.558 145.688C263.973 158.217 258.148 170.253 248.966 178.77C246.347 181.2 243.465 183.296 240.361 185.067C238.432 186.167 240.17 189.147 242.104 188.043C253.832 181.352 262.584 169.89 266.216 156.927C267.241 153.267 267.834 149.485 268.011 145.688C268.115 143.471 264.662 143.477 264.558 145.688" fill="#E5E4EF"/>
</svg>
