<svg width="295" height="187" viewBox="0 0 295 187" fill="none" xmlns="http://www.w3.org/2000/svg">
<path d="M285.418 151.895C283.648 153.834 281.453 155.277 279.071 156.397H279.068C278.844 156.503 278.62 156.607 278.393 156.705H278.39L278.387 156.708L278.385 156.705H278.382C278.382 156.705 278.382 156.706 278.382 156.706C278.382 156.707 278.381 156.707 278.381 156.707C278.381 156.707 278.38 156.708 278.38 156.708C278.38 156.708 278.379 156.708 278.379 156.708H278.376L278.373 156.705C278.37 156.708 278.37 156.708 278.367 156.705L278.365 156.708L278.362 156.705H278.359C278.356 156.708 278.356 156.708 278.353 156.705H278.35C276.756 157.396 275.119 157.983 273.448 158.462C263.628 161.255 253.306 161.795 243.248 160.043C243.056 160.008 242.866 159.974 242.674 159.939V136.58C242.863 136.499 243.056 136.418 243.248 136.341C244.504 135.819 245.775 135.34 247.061 134.903C248.911 134.27 250.787 133.726 252.69 133.273C258.895 131.768 265.298 131.249 271.664 131.735C272.822 131.822 273.977 131.947 275.129 132.11C277.54 132.447 280.068 133.034 282.292 134.054H282.295C282.62 134.206 282.939 134.365 283.255 134.535C285.232 135.609 286.898 137.086 287.915 139.111C288.28 139.838 288.544 140.613 288.697 141.412V141.418C288.754 141.694 288.794 141.974 288.826 142.25C289.188 145.66 287.777 149.309 285.418 151.895Z" fill="#E5E4F0"/>
<path d="M288.826 142.25C288.798 142.258 288.769 142.261 288.74 142.262C283.818 142.478 278.903 142.799 273.994 143.224H273.986C273.966 143.227 273.948 143.227 273.928 143.23C268.889 143.667 263.86 144.216 258.841 144.874C258.629 144.903 258.419 144.932 258.209 144.958C254.738 145.421 251.274 145.936 247.817 146.501C246.291 146.752 244.768 147.013 243.248 147.285C243.056 147.319 242.866 147.351 242.674 147.388V146.516C242.866 146.478 243.059 146.447 243.248 146.412C248.311 145.514 253.391 144.729 258.488 144.059C259.769 143.886 261.053 143.723 262.338 143.57C266.05 143.12 269.768 142.732 273.492 142.406C273.765 142.383 274.035 142.36 274.308 142.337C279.074 141.931 283.848 141.623 288.628 141.412C288.651 141.411 288.674 141.413 288.697 141.418C289.156 141.458 289.254 142.15 288.826 142.25Z" fill="white"/>
<path d="M278.604 155.857C272.473 155.902 266.432 153.296 262.095 148.982C260.872 147.761 259.793 146.401 258.882 144.93C258.59 144.46 257.906 144.979 258.195 145.444C261.564 150.859 267.174 154.716 273.36 156.134C275.116 156.533 276.913 156.726 278.714 156.709C279.264 156.705 279.15 155.853 278.604 155.857V155.857Z" fill="white"/>
<path d="M252.69 133.273C252.663 133.354 252.616 133.427 252.553 133.484C252.49 133.541 252.413 133.581 252.33 133.599C250.925 133.968 249.568 134.499 248.285 135.183C246.412 136.174 244.711 137.463 243.248 138.999C243.171 139.077 243.096 139.154 243.024 139.235C242.903 139.362 242.788 139.491 242.674 139.624V138.368C242.858 138.172 243.05 137.979 243.248 137.795C244.403 136.687 245.683 135.716 247.061 134.904C248.911 134.27 250.787 133.727 252.69 133.273Z" fill="white"/>
<path d="M282.801 133.827C278.901 135.508 275.637 138.392 273.485 142.06C273.442 142.165 273.441 142.283 273.484 142.388C273.527 142.494 273.609 142.578 273.713 142.623C273.818 142.664 273.935 142.664 274.039 142.621C274.144 142.579 274.228 142.497 274.275 142.394C276.328 138.93 279.427 136.209 283.123 134.623C283.63 134.406 283.309 133.61 282.801 133.827L282.801 133.827Z" fill="white"/>
<path d="M294.558 109.367C293.891 111.907 292.613 114.208 291.024 116.308L291.021 116.311C290.874 116.506 290.722 116.705 290.564 116.895V116.898C289.461 118.26 288.27 119.549 286.999 120.754C282.428 125.12 277.266 128.817 271.664 131.736C262.852 136.35 253.003 139.077 243.248 139.233C243.174 139.235 243.099 139.235 243.024 139.235C242.906 139.238 242.788 139.238 242.674 139.238V126.149C242.86 125.792 243.053 125.434 243.248 125.08C245.783 120.508 248.875 116.269 252.451 112.46C252.537 112.365 252.626 112.27 252.715 112.178C254.06 110.755 255.47 109.401 256.945 108.114C262.619 103.113 269.176 99.2208 276.279 96.6373C278.569 95.8136 281.08 95.1541 283.522 95.0245C283.881 95.0044 284.237 94.9957 284.597 94.9986C286.846 95.0303 289.004 95.5631 290.846 96.8821C291.505 97.3569 292.097 97.9199 292.604 98.5554C292.782 98.7771 292.946 99.0047 293.104 99.2379V99.2408C295.006 102.092 295.449 105.977 294.558 109.367Z" fill="#E5E4F0"/>
<path d="M293.104 99.238V99.2409C293.083 99.2595 293.06 99.2759 293.035 99.2898C288.783 101.77 284.584 104.339 280.439 107C280.433 107.002 280.43 107.005 280.425 107.008C280.408 107.02 280.391 107.03 280.373 107.04C276.112 109.776 271.911 112.604 267.771 115.524C267.599 115.645 267.423 115.769 267.248 115.893C264.389 117.918 261.56 119.986 258.761 122.097C253.474 126.088 248.303 130.228 243.248 134.515C243.056 134.676 242.866 134.841 242.674 135.005V133.884C242.863 133.72 243.056 133.556 243.248 133.395C245.185 131.756 247.139 130.14 249.11 128.548C249.699 128.073 250.29 127.597 250.882 127.128C256.14 122.932 261.516 118.892 267.01 115.009H267.013C268.093 114.246 269.175 113.489 270.259 112.739C273.339 110.614 276.454 108.539 279.603 106.516C279.83 106.369 280.06 106.222 280.29 106.075C284.321 103.495 288.405 100.999 292.541 98.5871C292.561 98.5748 292.582 98.5642 292.604 98.5554C293.035 98.3826 293.44 98.9529 293.104 99.238Z" fill="white"/>
<path d="M290.361 116.046C284.952 118.941 278.395 119.446 272.556 117.645C270.906 117.133 269.321 116.431 267.832 115.553C267.356 115.273 266.99 116.05 267.463 116.328C272.955 119.555 279.711 120.358 285.846 118.734C287.586 118.269 289.267 117.603 290.853 116.749C291.339 116.489 290.843 115.788 290.361 116.046V116.046Z" fill="white"/>
<path d="M249.89 126.584C249.622 125.077 249.53 123.543 249.616 122.014C249.81 118.527 250.875 115.145 252.714 112.179C254.06 110.756 255.47 109.402 256.944 108.114C256.958 108.198 256.95 108.285 256.92 108.365C256.891 108.445 256.841 108.516 256.776 108.571C255.703 109.552 254.747 110.654 253.928 111.856C251 116.139 249.858 121.398 250.744 126.513C250.758 126.571 250.757 126.632 250.741 126.689C250.726 126.747 250.695 126.8 250.653 126.842C250.592 126.896 250.518 126.932 250.438 126.948C250.358 126.964 250.275 126.959 250.198 126.933C250.121 126.907 250.052 126.861 249.997 126.8C249.943 126.739 249.906 126.664 249.89 126.584V126.584Z" fill="white"/>
<path d="M283.867 94.5844C281.191 97.8885 279.638 101.962 279.432 106.212C279.442 106.326 279.497 106.43 279.583 106.504C279.67 106.577 279.782 106.613 279.895 106.605C280.007 106.593 280.11 106.538 280.183 106.451C280.256 106.365 280.293 106.254 280.286 106.141C280.499 102.117 281.982 98.2643 284.521 95.1392C284.869 94.7107 284.216 94.1551 283.867 94.5844Z" fill="white"/>
<path d="M254.112 104.047V104.05C254.092 104.298 254.069 104.542 254.043 104.787V104.793C253.843 106.536 253.531 108.263 253.109 109.966C252.908 110.801 252.69 111.63 252.451 112.46C252.422 112.566 252.391 112.673 252.359 112.776V112.779C251.657 115.192 250.819 117.562 249.848 119.878C248.061 124.144 245.85 128.217 243.248 132.038C243.061 132.317 242.869 132.597 242.674 132.873V87.7722C242.866 87.7607 243.056 87.7607 243.248 87.7665C243.34 87.7665 243.432 87.7694 243.524 87.7751C244.335 87.8178 245.136 87.9739 245.903 88.2388C246.173 88.3281 246.435 88.4289 246.693 88.5412C249.828 89.9178 252.29 92.9534 253.359 96.2913C254.161 98.7911 254.322 101.421 254.112 104.047Z" fill="#E5E4F0"/>
<path d="M246.693 88.5418C246.687 88.57 246.676 88.5972 246.662 88.6224C245.498 90.889 244.36 93.1671 243.248 95.4567C243.056 95.8512 242.863 96.2487 242.674 96.6432V94.6848C242.863 94.2931 243.055 93.9015 243.248 93.5098C244.107 91.7645 244.981 90.0269 245.869 88.297C245.878 88.2768 245.89 88.2575 245.903 88.2394C246.167 87.8592 246.822 88.1184 246.693 88.5418Z" fill="white"/>
<path d="M254.204 104.511C254.152 104.603 254.1 104.696 254.043 104.788C253.199 106.261 252.195 107.637 251.049 108.889C248.848 111.283 246.197 113.218 243.248 114.583C243.059 114.675 242.866 114.761 242.674 114.842V113.906C242.866 113.819 243.059 113.73 243.248 113.638C247.516 111.597 251.062 108.3 253.411 104.186C253.445 104.127 253.491 104.076 253.546 104.037C253.601 103.998 253.664 103.971 253.731 103.958C253.797 103.945 253.865 103.947 253.931 103.963C253.997 103.979 254.059 104.008 254.112 104.05C254.148 104.075 254.179 104.106 254.203 104.142C254.228 104.178 254.245 104.219 254.253 104.262C254.262 104.305 254.262 104.349 254.253 104.391C254.245 104.434 254.228 104.475 254.204 104.511V104.511Z" fill="white"/>
<path d="M243.249 52.504V74.392H242.674V74.1587H50.4567V74.392H49.8821V52.504C49.8845 49.9841 50.8843 47.5682 52.6619 45.7864C54.4395 44.0046 56.8497 43.0025 59.3637 43H233.767C236.281 43.0025 238.692 44.0046 240.469 45.7864C242.247 47.5682 243.246 49.9841 243.249 52.504V52.504Z" fill="#E1DFEE"/>
<path d="M233.767 43H59.3637C56.8497 43.0025 54.4395 44.0046 52.6619 45.7864C50.8843 47.5682 49.8845 49.9841 49.8821 52.504V177.496C49.8845 180.016 50.8843 182.432 52.6619 184.214C54.4395 185.995 56.8497 186.998 59.3637 187H233.767C236.281 186.998 238.692 185.995 240.469 184.214C242.247 182.432 243.246 180.016 243.249 177.496V52.504C243.246 49.9841 242.247 47.5682 240.469 45.7864C238.692 44.0046 236.281 43.0025 233.767 43V43ZM242.674 177.496C242.671 179.863 241.732 182.132 240.062 183.806C238.392 185.479 236.129 186.421 233.767 186.424H59.3637C57.0023 186.421 54.7386 185.479 53.0688 183.806C51.3991 182.132 50.4597 179.863 50.4567 177.496V52.504C50.4597 50.1371 51.3991 47.868 53.0688 46.1943C54.7386 44.5206 57.0023 43.579 59.3637 43.576H233.767C236.129 43.579 238.392 44.5206 240.062 46.1943C241.732 47.868 242.671 50.1371 242.674 52.504V177.496Z" fill="#D3D4ED"/>
<path d="M88.9591 64.4555C92.1328 64.4555 94.7055 61.8767 94.7055 58.6955C94.7055 55.5144 92.1328 52.9355 88.9591 52.9355C85.7855 52.9355 83.2127 55.5144 83.2127 58.6955C83.2127 61.8767 85.7855 64.4555 88.9591 64.4555Z" fill="white"/>
<path d="M204.171 64.4555C207.345 64.4555 209.918 61.8767 209.918 58.6955C209.918 55.5144 207.345 52.9355 204.171 52.9355C200.997 52.9355 198.425 55.5144 198.425 58.6955C198.425 61.8767 200.997 64.4555 204.171 64.4555Z" fill="white"/>
<path d="M105.56 122.921H71.3761C69.9279 122.919 68.5395 122.342 67.5155 121.315C66.4914 120.289 65.9154 118.897 65.9138 117.446V101.251C65.9154 99.7991 66.4914 98.4073 67.5155 97.3809C68.5395 96.3544 69.9279 95.777 71.3761 95.7754H105.56C107.009 95.777 108.397 96.3544 109.421 97.3809C110.445 98.4073 111.021 99.7991 111.023 101.251V117.446C111.021 118.897 110.445 120.289 109.421 121.315C108.397 122.342 107.009 122.919 105.56 122.921V122.921Z" fill="#BDB6D1"/>
<path d="M163.714 122.921H129.53C128.081 122.919 126.693 122.342 125.669 121.315C124.645 120.289 124.069 118.897 124.067 117.446V101.251C124.069 99.7991 124.645 98.4073 125.669 97.3809C126.693 96.3544 128.081 95.777 129.53 95.7754H163.714C165.162 95.777 166.551 96.3544 167.575 97.3809C168.599 98.4073 169.175 99.7991 169.176 101.251V117.446C169.175 118.897 168.599 120.289 167.575 121.315C166.551 122.342 165.162 122.919 163.714 122.921V122.921Z" fill="#BDB6D1"/>
<path d="M163.714 164.765H129.53C128.037 164.763 126.607 164.168 125.552 163.111C124.497 162.053 123.903 160.619 123.902 159.123V142.928C123.903 141.433 124.497 139.999 125.552 138.941C126.607 137.884 128.037 137.289 129.53 137.287H163.714C165.206 137.289 166.637 137.884 167.692 138.941C168.747 139.999 169.34 141.433 169.342 142.928V159.123C169.34 160.619 168.747 162.053 167.692 163.111C166.637 164.168 165.206 164.763 163.714 164.765V164.765Z" fill="#E5E4F0"/>
<path d="M105.447 164.765H71.263C69.7709 164.763 68.3404 164.168 67.2854 163.111C66.2303 162.053 65.6368 160.619 65.6351 159.123V142.928C65.6368 141.433 66.2303 139.999 67.2854 138.941C68.3404 137.884 69.7709 137.289 71.263 137.287H105.447C106.939 137.289 108.37 137.884 109.425 138.941C110.48 139.999 111.074 141.433 111.075 142.928V159.123C111.074 160.619 110.48 162.053 109.425 163.111C108.37 164.168 106.939 164.763 105.447 164.765V164.765Z" fill="#E5E4F0"/>
<path d="M221.865 164.765H187.681C186.189 164.763 184.759 164.168 183.703 163.111C182.648 162.053 182.055 160.619 182.053 159.123V142.928C182.055 141.433 182.648 139.999 183.703 138.941C184.759 137.884 186.189 137.289 187.681 137.287H221.865C223.358 137.289 224.788 137.884 225.843 138.941C226.898 139.999 227.492 141.433 227.493 142.928V159.123C227.492 160.619 226.898 162.053 225.843 163.111C224.788 164.168 223.358 164.763 221.865 164.765V164.765Z" fill="#E5E4F0"/>
<path d="M221.865 122.953H187.681C186.189 122.951 184.759 122.357 183.703 121.299C182.648 120.241 182.055 118.808 182.053 117.312V101.117C182.055 99.6212 182.648 98.1873 183.703 97.1297C184.759 96.0722 186.189 95.4773 187.681 95.4756H221.865C223.358 95.4773 224.788 96.0722 225.843 97.1297C226.898 98.1873 227.492 99.6212 227.493 101.117V117.312C227.492 118.808 226.898 120.241 225.843 121.299C224.788 122.357 223.358 122.951 221.865 122.953Z" fill="#E5E4F0"/>
<path d="M88.4682 118.639C93.5876 118.639 97.7377 114.48 97.7377 109.348C97.7377 104.217 93.5876 100.057 88.4682 100.057C83.3488 100.057 79.1987 104.217 79.1987 109.348C79.1987 114.48 83.3488 118.639 88.4682 118.639Z" fill="white"/>
<path d="M87.5504 112.893C87.3418 112.893 87.1388 112.825 86.9719 112.7L86.9616 112.692L84.7832 111.02C84.6822 110.943 84.5974 110.846 84.5336 110.736C84.4699 110.626 84.4284 110.504 84.4117 110.378C84.3949 110.251 84.4032 110.123 84.436 110C84.4688 109.876 84.5255 109.761 84.6028 109.66C84.6802 109.559 84.7767 109.474 84.8868 109.41C84.9969 109.346 85.1185 109.305 85.2445 109.288C85.3706 109.271 85.4987 109.28 85.6216 109.313C85.7444 109.346 85.8596 109.403 85.9605 109.48L87.3715 110.565L90.7059 106.206C90.7832 106.105 90.8796 106.02 90.9897 105.956C91.0997 105.893 91.2212 105.851 91.3472 105.835C91.4732 105.818 91.6013 105.826 91.7241 105.859C91.8468 105.892 91.9619 105.949 92.0628 106.026L92.0421 106.055L92.0633 106.027C92.2668 106.184 92.3999 106.415 92.4335 106.67C92.467 106.925 92.3983 107.183 92.2424 107.387L88.3204 112.514C88.2297 112.632 88.113 112.728 87.9795 112.793C87.8459 112.859 87.6991 112.893 87.5504 112.893V112.893Z" fill="#BDB6D1"/>
<path d="M146.787 118.506C151.907 118.506 156.057 114.346 156.057 109.214C156.057 104.083 151.907 99.9229 146.787 99.9229C141.668 99.9229 137.518 104.083 137.518 109.214C137.518 114.346 141.668 118.506 146.787 118.506Z" fill="white"/>
<path d="M145.869 112.759C145.66 112.759 145.457 112.692 145.29 112.566L145.28 112.558L143.102 110.887C142.898 110.73 142.764 110.499 142.731 110.244C142.697 109.989 142.766 109.731 142.922 109.527C143.078 109.322 143.309 109.189 143.563 109.155C143.818 109.121 144.075 109.19 144.279 109.347L145.69 110.431L149.024 106.072C149.102 105.971 149.198 105.886 149.308 105.823C149.418 105.759 149.54 105.717 149.666 105.701C149.792 105.684 149.92 105.692 150.042 105.725C150.165 105.758 150.28 105.815 150.381 105.893L150.36 105.921L150.382 105.893C150.585 106.05 150.718 106.281 150.752 106.536C150.785 106.791 150.717 107.049 150.561 107.253L146.639 112.38C146.548 112.498 146.431 112.594 146.298 112.66C146.164 112.725 146.018 112.759 145.869 112.759V112.759Z" fill="#BDB6D1"/>
<path opacity="0.5" d="M73.5124 29.7832L41.7077 29.7832C41.1816 29.7832 40.7552 29.3888 40.7552 28.9023V17.4916C40.7552 17.0051 41.1816 16.6107 41.7077 16.6107L73.5124 16.6107C74.0385 16.6107 74.4649 17.0051 74.4649 17.4916V28.9023C74.4649 29.3888 74.0385 29.7832 73.5124 29.7832Z" fill="#E5E4F0"/>
<path opacity="0.5" d="M54.7053 13.1729L22.9006 13.1729C22.3746 13.1729 21.9481 12.7785 21.9481 12.2919V0.881293C21.9481 0.394783 22.3746 0.000389099 22.9006 0.000389099L54.7053 0.000389099C55.2314 0.000389099 55.6579 0.394783 55.6579 0.881293V12.2919C55.6579 12.7785 55.2314 13.1729 54.7053 13.1729Z" fill="#E5E4F0"/>
<path opacity="0.5" d="M92.3117 13.1729L60.507 13.1729C59.981 13.1729 59.5545 12.7785 59.5545 12.2919V0.881293C59.5545 0.394783 59.981 0.000389099 60.507 0.000389099L92.3117 0.000389099C92.8378 0.000389099 93.2643 0.394783 93.2643 0.881293V12.2919C93.2643 12.7785 92.8378 13.1729 92.3117 13.1729Z" fill="#E5E4F0"/>
<path opacity="0.5" d="M36.453 113.617H0.952522C0.426459 113.617 0 113.223 0 112.736L0 99.881C0 99.3944 0.426459 99.0001 0.952522 99.0001H36.453C36.9791 99.0001 37.4055 99.3944 37.4055 99.881V112.736C37.4055 113.223 36.9791 113.617 36.453 113.617Z" fill="#E5E4F0"/>
<path opacity="0.5" d="M248.367 21H276.349C276.875 21 277.301 21.3944 277.301 21.8809V31.7999C277.301 32.2864 276.875 32.6808 276.349 32.6808H248.367C247.841 32.6808 247.414 32.2864 247.414 31.7999V21.8809C247.414 21.3944 247.841 21 248.367 21Z" fill="#E5E4F0"/>
<path opacity="0.5" d="M259.341 37H287.323C287.849 37 288.276 37.3944 288.276 37.8809V47.7999C288.276 48.2864 287.849 48.6808 287.323 48.6808H259.341C258.815 48.6808 258.389 48.2864 258.389 47.7999V37.8809C258.389 37.3944 258.815 37 259.341 37Z" fill="#E5E4F0"/>
</svg>
