<svg width="40" height="40" viewBox="0 0 40 40" fill="none" xmlns="http://www.w3.org/2000/svg">
<g clip-path="url(#clip0)">
<path d="M20 40.0007C31.0155 40.0007 40 31.0164 40 20.001C40 8.98527 31.0157 0.000976562 20 0.000976562C8.9843 0.000976562 0 8.98527 0 20.0009C0 31.0164 8.9843 40.0007 20 40.0007Z" fill="#D8CCFB"/>
<path d="M13.3212 23.5935C11.6534 19.3859 8.15002 15.5779 12.5585 7.90752C14.3741 4.74846 17.1474 2.66502 20.0124 3.37041C22.8774 2.6651 25.6508 4.74853 27.4664 7.90752C31.8747 15.5779 28.3716 19.3859 26.7035 23.5935L20.0127 23.6101L13.3214 23.5935H13.3212Z" fill="#494949"/>
<path d="M8.74289 30.1714C8.53367 30.5092 8.01171 33.3813 7.43445 35.5588C10.8687 38.3357 15.2397 39.9998 19.9998 39.9998C24.7601 39.9998 29.131 38.3357 32.5652 35.5588C31.9877 33.3815 31.4659 30.5089 31.2566 30.1714C28.0437 24.9835 23.0912 27.2482 22.7535 21.3115C22.7535 21.3115 21.1602 22.5005 19.9437 22.5114C18.727 22.5222 17.2444 21.3865 17.2444 21.3865C16.9076 27.3181 11.9536 24.9874 8.74289 30.1714Z" fill="#FED198"/>
<path d="M22.8397 22.1499C22.7998 21.8896 22.7704 21.6114 22.7535 21.3115C22.7535 21.3115 21.1602 22.5005 19.9436 22.5114C18.727 22.5222 17.2444 21.3865 17.2444 21.3865C17.2272 21.6918 17.1971 21.9743 17.1559 22.2379C17.1871 22.2625 17.218 22.2875 17.2497 22.3119L17.2493 22.3162C17.343 22.3978 18.7671 23.6224 19.9434 23.61C21.1196 23.6223 22.5436 22.3975 22.6374 22.3162L22.6372 22.3119C22.7063 22.259 22.7733 22.2046 22.8395 22.15L22.8397 22.1499Z" fill="#F0B97D"/>
<path d="M17.2496 21.3904C17.3432 21.4611 18.7674 22.5219 19.9436 22.5113C21.1199 22.5219 22.5439 21.4609 22.6377 21.3904C24.4156 20.3539 25.8744 17.2979 25.5451 13.986C25.2754 11.273 22.3406 15.251 20.2965 9.65332C17.4035 15.7136 14.6557 12.1288 14.3424 14.4255C13.9971 16.9561 15.4178 20.1401 17.2496 21.3905V21.3904Z" fill="#FED198"/>
<path d="M14.9153 25.6339C13.1645 26.5691 9.96159 26.5974 8.74291 28.5567C8.53065 28.8979 7.99784 33.0776 7.41174 35.5406C10.8491 38.3283 15.229 39.9999 19.9996 39.9999C24.7705 39.9999 29.15 38.3286 32.5876 35.5406C32.0015 33.0776 31.4046 28.9303 31.2564 28.5567C30.4472 26.5157 26.7013 26.4304 24.9486 25.4893C22.2236 35.3757 18.1621 36.0496 14.9155 25.6347L14.9149 25.6339H14.9153V25.6339Z" fill="#7B7284"/>
<path d="M16.0827 24.6509C15.9689 27.7267 16.4919 32.0843 19.9431 33.1979C16.6939 33.3338 14.5855 28.6521 12.1836 27.426L16.0826 24.6511V24.6509H16.0827Z" fill="white"/>
<path d="M23.9971 24.6509C24.1164 27.7267 23.5675 32.0843 19.9432 33.1979C23.3552 33.3338 25.5693 28.6521 28.091 27.426L23.997 24.6511L23.9971 24.6509Z" fill="white"/>
</g>
<defs>
<clipPath id="clip0">
<rect width="40" height="40" fill="white"/>
</clipPath>
</defs>
</svg>
