<svg width="24" height="24" viewBox="0 0 24 24" fill="none" xmlns="http://www.w3.org/2000/svg">
<path d="M20.7654 3.12047H3.23455C2.55381 3.12047 2 3.71498 2 4.44575V21.6747C2 22.4055 2.55381 23 3.23455 23H20.7654C21.4462 23 22 22.4055 22 21.6747V4.4458C22 3.71503 21.4462 3.12047 20.7654 3.12047ZM20.5186 21.4096H3.48148V4.71083H20.5186V21.4096Z" fill="#B0BED4"/>
<path d="M21.2588 8.42171H2.74023V10.0121H21.2588V8.42171Z" fill="#B0BED4"/>
<path d="M7.1841 1C6.77498 1 6.44336 1.356 6.44336 1.79518V6.03615C6.44336 6.47534 6.77498 6.83133 7.1841 6.83133C7.59322 6.83133 7.92484 6.47534 7.92484 6.03615V1.79518C7.92484 1.356 7.59322 1 7.1841 1Z" fill="#B0BED4"/>
<path d="M17.0619 1C16.6528 1 16.3212 1.356 16.3212 1.79518V6.03615C16.3212 6.47534 16.6528 6.83133 17.0619 6.83133C17.471 6.83133 17.8026 6.47534 17.8026 6.03615V1.79518C17.8026 1.356 17.471 1 17.0619 1Z" fill="#B0BED4"/>
<path d="M14.8398 16.9036H9.40773C8.99862 16.9036 8.66699 17.2596 8.66699 17.6988C8.66699 18.1379 8.99862 18.4939 9.40773 18.4939H14.8398C15.249 18.4939 15.5806 18.1379 15.5806 17.6988C15.5806 17.2596 15.249 16.9036 14.8398 16.9036Z" fill="#B0BED4"/>
<path d="M14.8398 13.1928H9.40773C8.99862 13.1928 8.66699 13.5488 8.66699 13.988C8.66699 14.4271 8.99862 14.7831 9.40773 14.7831H14.8398C15.249 14.7831 15.5806 14.4272 15.5806 13.988C15.5806 13.5487 15.249 13.1928 14.8398 13.1928Z" fill="#B0BED4"/>
</svg>
