<svg width="50" height="50" viewBox="0 0 50 50" fill="none" xmlns="http://www.w3.org/2000/svg">
<rect opacity="0.8" width="50" height="50" rx="15" fill="#F6F6F6"/>
<path d="M35.4329 30.233L32.6986 27.4982C31.9691 26.7686 30.6945 26.7674 29.9638 27.4982L29.5078 27.9541L34.9771 33.4231L35.4329 32.9673C36.1899 32.2102 36.1874 30.9863 35.4329 30.233Z" fill="#94885F"/>
<path d="M28.5715 28.8401C27.9961 29.2858 27.1753 29.268 26.6496 28.7411L21.2434 23.3312C20.7164 22.8042 20.6987 21.9828 21.1444 21.4089L15.6877 15.9525C13.3403 18.6888 13.4321 22.8118 16.0229 25.4026L24.5782 33.9616C27.0644 36.4477 31.1368 36.7775 34.0284 34.2967L28.5715 28.8401Z" fill="#94885F"/>
<path d="M22.4866 17.2824L19.7523 14.5476C19.0228 13.818 17.7482 13.8168 17.0175 14.5476L16.5615 15.0035L22.0308 20.4725L22.4866 20.0167C23.2436 19.2596 23.2411 18.0357 22.4866 17.2824Z" fill="#94885F"/>
</svg>
