<svg width="24" height="24" viewBox="0 0 24 24" fill="none" xmlns="http://www.w3.org/2000/svg">
<path d="M21.7442 9.82131L12.2706 2.18239C11.9619 1.93399 11.4872 1.94005 11.1871 2.19606L2.23976 9.83494C2.0866 9.96572 2 10.1456 2 10.3333V21.3055C2 21.6891 2.3534 22 2.78948 22H9.36841C9.80445 22 10.1579 21.6891 10.1579 21.3055V16.213H13.8421V21.3055C13.8421 21.6891 14.1955 22 14.6316 22H21.2105C21.6466 22 22 21.6893 22 21.3055V10.3333C22 10.1387 21.9074 9.95303 21.7442 9.82131ZM20.4211 20.6111H15.4211V15.5185C15.4211 15.135 15.0676 14.8241 14.6316 14.8241H9.36846C8.93242 14.8241 8.57898 15.135 8.57898 15.5185V20.6111H3.57896V10.6271L11.7524 3.64907L20.4211 10.6389V20.6111Z" fill="#B0BED4"/>
</svg>
