<svg width="34" height="34" viewBox="0 0 34 34" fill="none" xmlns="http://www.w3.org/2000/svg">
<rect opacity="0.8" width="34" height="34" rx="6" fill="#F6F6F6"/>
<path d="M26.1936 10.4729C26.1023 10.4372 26.0146 10.4193 25.9303 10.4193C25.7407 10.4193 25.5829 10.4873 25.4565 10.623L21.2128 14.9332V13.1642C21.2128 12.3135 20.9162 11.5863 20.323 10.9823C19.7297 10.3783 19.0156 10.0763 18.18 10.0763H10.767C9.93167 10.0763 9.21733 10.3783 8.62405 10.9823C8.03098 11.5863 7.73438 12.3135 7.73438 13.1642V20.7122C7.73438 21.5628 8.03098 22.2899 8.62408 22.8939C9.21737 23.4979 9.93171 23.7999 10.767 23.7999H18.1801C19.0156 23.7999 19.7298 23.4979 20.323 22.8939C20.9163 22.2899 21.2129 21.5628 21.2129 20.7122V18.9323L25.4565 23.2532C25.583 23.3888 25.7408 23.4568 25.9304 23.4568C26.0147 23.4568 26.1024 23.439 26.1937 23.4034C26.4676 23.2818 26.6044 23.071 26.6044 22.7708V11.1056C26.6043 10.8052 26.4675 10.5944 26.1936 10.4729Z" fill="#94885F"/>
<path d="M12.6377 20.6141V13.2621M15.5785 18.8987L15.5785 14.9776" stroke="white" stroke-width="1.7" stroke-linecap="round"/>
</svg>
