<svg width="40" height="40" viewBox="0 0 40 40" fill="none" xmlns="http://www.w3.org/2000/svg">
<g clip-path="url(#clip0)">
<path d="M40 20C40 24.4141 38.5695 28.4937 36.1477 31.8016C32.5094 36.7719 26.6313 34.8893 20 34.8893C13.3688 34.8893 7.49062 36.7719 3.85234 31.8016C1.43047 28.4937 0 24.4141 0 20C0 8.95469 8.95469 0 20 0C31.0453 0 40 8.95469 40 20Z" fill="#D8CCFB"/>
<path d="M13.4567 23.4634H26.5431V26.8751H13.4567V23.4634Z" fill="#584B66"/>
<path d="M20 23.4634H26.543V26.8751H20V23.4634Z" fill="#4A3E56"/>
<path d="M15.6226 20.3506H24.3772V29.635H15.6226V20.3506Z" fill="#FFBB7D"/>
<path d="M20 20.3506H24.3773V29.635H20V20.3506Z" fill="#FFBB7D"/>
<path d="M10.5127 25.9604H29.4873V34.8897H10.5127V25.9604Z" fill="#FFBB7D"/>
<path d="M20 25.9604H29.4875V34.8894H20V25.9604Z" fill="#FFBB7D"/>
<path d="M36.1476 31.8019C32.5093 36.7722 26.6312 40.0003 20 40.0003C13.3687 40.0003 7.49058 36.7722 3.85229 31.8019C3.95229 28.5589 6.61323 25.9604 9.88042 25.9604H15.6226L20 30.1565L24.3773 25.9604H30.1203C33.3882 25.9604 36.0484 28.5581 36.1476 31.8019Z" fill="#7B7284"/>
<path d="M27.3141 11.8087C27.0051 7.11787 23.2107 5.38428 20 5.38428C16.7893 5.38428 12.9949 7.11787 12.6859 11.8087C11.8556 11.9693 11.2659 13.0583 11.3587 13.9388L11.5011 15.9426C11.5985 16.8672 12.4112 17.5422 13.3069 17.4418L13.4614 17.4251C15.2962 22.3519 18.1736 22.8655 20 23.154C21.8264 22.8655 24.7038 22.3519 26.5386 17.4251L26.693 17.4418C27.5887 17.5422 28.4015 16.8672 28.4989 15.9426L28.6412 13.9388C28.7341 13.0583 28.1444 11.9693 27.3141 11.8087Z" fill="#FFD4A6"/>
<path d="M13.4567 23.4634L20 30.1563L16.7284 33.672L11.1328 25.9604L13.4567 23.4634Z" fill="#9D97A5"/>
<path d="M26.5433 23.4634L20 30.1563L23.2716 33.672L28.8672 25.9604L26.5433 23.4634Z" fill="#9D97A5"/>
<path d="M15.5664 2.30469C15.5664 2.30469 11.3361 6.42813 12.2122 10.4971L12.8229 14.5508H14.5026L15.3056 11.5616C15.5913 10.498 16.6876 9.85313 17.7481 10.1498C17.8501 10.1784 17.9516 10.2105 18.0524 10.2463L18.3461 10.3505C19.4215 10.7323 20.5944 10.6945 21.6576 10.2802C21.8719 10.1967 22.09 10.1298 22.3103 10.0794C23.3553 9.84008 24.402 10.474 24.6801 11.5094L25.4972 14.5508H27.1769L27.7859 10.3302C27.9166 6.71227 25.0083 2.30469 15.5664 2.30469Z" fill="#494949"/>
</g>
<defs>
<clipPath id="clip0">
<rect width="40" height="40" fill="white"/>
</clipPath>
</defs>
</svg>
