<svg width="335" height="180" viewBox="0 0 335 180" fill="none" xmlns="http://www.w3.org/2000/svg">
<rect width="335" height="180" rx="12" fill="#7B70FF"/>
<mask id="mask0" mask-type="alpha" maskUnits="userSpaceOnUse" x="0" y="0" width="335" height="180">
<rect width="335" height="180" rx="12" fill="#7B70FF"/>
</mask>
<g mask="url(#mask0)">
<path d="M26.2799 122.137C16.7559 109.573 -2.2952 107.57 -13.9585 109.092V188.016H132.999V160.621C123.377 135.835 94.4453 143.01 70.892 143.01C51.6476 143.01 37.6516 137.139 26.2799 122.137Z" stroke="#6A5EFE" stroke-width="0.8" stroke-linecap="round" stroke-dasharray="3 3"/>
<path d="M24.2853 129.352C14.7613 116.788 -4.28983 114.785 -15.9531 116.307V195.231H131.004V167.836C121.382 143.05 92.4507 150.225 68.8974 150.225C49.6529 150.225 35.657 144.354 24.2853 129.352Z" fill="#7367FF"/>
<path d="M296.421 52.5452C306.879 62.8251 327.798 64.4638 340.604 63.2185L340.604 -1.35539L179.239 -1.35541L179.239 21.0587C189.805 41.3381 221.573 35.4677 247.435 35.4677C268.566 35.4677 283.935 40.2708 296.421 52.5452Z" stroke="#6A5EFE" stroke-width="0.8" stroke-linecap="round" stroke-dasharray="3 3"/>
<path d="M298.096 47.9006C308.554 58.1806 329.473 59.8192 342.279 58.574L342.279 -5.99992L180.914 -5.99994L180.914 16.4142C191.48 36.6936 223.248 30.8232 249.11 30.8232C270.241 30.8232 285.609 35.6262 298.096 47.9006Z" fill="#7367FF"/>
<rect x="170.491" y="104.923" width="23.9286" height="5.84615" rx="2.92308" fill="#8D84FF"/>
<rect x="185.218" y="96" width="24" height="5.82875" rx="2.91438" transform="rotate(90 185.218 96)" fill="#8D84FF"/>
<rect x="185.446" y="67.4614" width="11.9643" height="2.92308" rx="1.46154" fill="#8D84FF"/>
<rect x="192.808" y="63" width="12" height="2.91438" rx="1.45719" transform="rotate(90 192.808 63)" fill="#8D84FF"/>
<rect x="93.6973" y="25.4614" width="11.9643" height="2.92308" rx="1.46154" fill="#8D84FF"/>
<rect x="101.059" y="21" width="12" height="2.91438" rx="1.45719" transform="rotate(90 101.059 21)" fill="#8D84FF"/>
<rect x="145.565" y="85.9746" width="7.97619" height="1.94872" rx="0.974359" fill="#8D84FF"/>
<rect x="150.474" y="83" width="8" height="1.94292" rx="0.971459" transform="rotate(90 150.474 83)" fill="#8D84FF"/>
</g>
</svg>
